<?xml version="1.0" encoding="utf-8"?>
<!-- Generator: Adobe Illustrator 27.5.0, SVG Export Plug-In . SVG Version: 6.00 Build 0)  -->
<svg version="1.1" xmlns="http://www.w3.org/2000/svg" xmlns:xlink="http://www.w3.org/1999/xlink" x="0px" y="0px"
	 viewBox="0 0 500 500" style="enable-background:new 0 0 500 500;" xml:space="preserve">
<g id="Background_Complete">
	<g>
		<rect y="382.398" style="fill:#EBEBEB;" width="500" height="0.25"/>
		<rect x="52.459" y="391.922" style="fill:#EBEBEB;" width="33.122" height="0.25"/>
		<rect x="145.333" y="389.208" style="fill:#EBEBEB;" width="34.5" height="0.25"/>
		<rect x="76.082" y="396.75" style="fill:#EBEBEB;" width="55.418" height="0.25"/>
		<rect x="405.64" y="397.667" style="fill:#EBEBEB;" width="43.193" height="0.25"/>
		<rect x="370.43" y="391.417" style="fill:#EBEBEB;" width="22.903" height="0.25"/>
		<rect x="195.633" y="395.431" style="fill:#EBEBEB;" width="93.676" height="0.25"/>
		<path style="fill:#EBEBEB;" d="M237.014,337.8H43.915c-3.147,0-5.708-2.561-5.708-5.708V60.66c0-3.147,2.561-5.708,5.708-5.708
			h193.099c3.146,0,5.707,2.561,5.707,5.708v271.432C242.721,335.239,240.16,337.8,237.014,337.8z M43.915,55.203
			c-3.01,0-5.458,2.448-5.458,5.458v271.432c0,3.01,2.448,5.458,5.458,5.458h193.099c3.009,0,5.457-2.448,5.457-5.458V60.66
			c0-3.009-2.448-5.458-5.457-5.458H43.915z"/>
		<path style="fill:#EBEBEB;" d="M453.31,337.8H260.212c-3.147,0-5.707-2.561-5.707-5.708V60.66c0-3.147,2.561-5.708,5.707-5.708
			H453.31c3.148,0,5.708,2.561,5.708,5.708v271.432C459.019,335.239,456.458,337.8,453.31,337.8z M260.212,55.203
			c-3.009,0-5.457,2.448-5.457,5.458v271.432c0,3.01,2.448,5.458,5.457,5.458H453.31c3.01,0,5.458-2.448,5.458-5.458V60.66
			c0-3.009-2.448-5.458-5.458-5.458H260.212z"/>
	</g>
	<g>
		<g>
			<rect x="148.597" y="379.299" style="fill:#E0E0E0;" width="54.14" height="3.1"/>
			<path style="fill:#E0E0E0;" d="M170.802,311.592l-14.961,67.707h39.652l-14.961-67.707
				C179.381,306.382,171.953,306.382,170.802,311.592z"/>
			<g>
				<polygon style="fill:#F5F5F5;" points="183.506,325.034 167.828,325.034 164.038,342.191 187.296,342.191 				"/>
				<polygon style="fill:#F5F5F5;" points="187.959,345.211 163.375,345.211 161.453,353.896 189.881,353.896 				"/>
			</g>
		</g>
		<g>
			<polygon style="fill:#E0E0E0;" points="72.517,382.398 80.564,382.398 104.24,250 96.192,250 			"/>
			<polygon style="fill:#E0E0E0;" points="283.155,382.398 291.202,382.398 314.878,250 306.831,250 			"/>
			<g>
				<rect x="72.517" y="256.445" style="fill:#EBEBEB;" width="266.037" height="48.116"/>
				<polygon style="fill:#FAFAFA;" points="101.36,302.439 73.781,302.439 89.078,258.568 116.657,258.568 				"/>
				<polygon style="fill:#FAFAFA;" points="156.518,302.439 128.939,302.439 144.236,258.568 171.815,258.568 				"/>
				<polygon style="fill:#FAFAFA;" points="211.676,302.439 184.097,302.439 199.394,258.568 226.973,258.568 				"/>
				<polygon style="fill:#FAFAFA;" points="266.834,302.439 239.255,302.439 254.552,258.568 282.131,258.568 				"/>
				<polygon style="fill:#FAFAFA;" points="321.992,302.439 294.413,302.439 309.71,258.568 337.289,258.568 				"/>
			</g>
			<polygon style="fill:#E0E0E0;" points="127.915,382.398 119.868,382.398 96.192,250 104.24,250 			"/>
			<polygon style="fill:#E0E0E0;" points="338.554,382.398 330.507,382.398 306.831,250 314.878,250 			"/>
		</g>
		<g>
			<rect x="376" y="378.333" style="fill:#E0E0E0;" width="71" height="4.065"/>
			<path style="fill:#E0E0E0;" d="M404.653,291.654l-19.153,86.68h52l-19.153-86.68
				C416.727,284.321,406.273,284.321,404.653,291.654z"/>
			<g>
				<polygon style="fill:#F5F5F5;" points="421.78,307.17 401.22,307.17 396.25,329.67 426.75,329.67 				"/>
				<polygon style="fill:#F5F5F5;" points="427.62,333.63 395.38,333.63 392.86,345.02 430.14,345.02 				"/>
			</g>
		</g>
		<g>
			<path style="fill:#EBEBEB;" d="M463,241.899V271.2c0,1.963-1.908,3.361-3.78,2.767L36.252,139.923
				c-1.206-0.382-2.026-1.502-2.026-2.767v-29.301c0-1.963,1.908-3.361,3.78-2.767l422.968,134.045
				C462.18,239.514,463,240.634,463,241.899z"/>
			<g>
				<polygon style="fill:#FAFAFA;" points="429.714,262.383 453,269.763 440.084,234.745 416.798,227.366 				"/>
				<polygon style="fill:#FAFAFA;" points="383.143,247.624 406.428,255.003 393.512,219.986 370.227,212.606 				"/>
				<polygon style="fill:#FAFAFA;" points="336.571,232.865 359.857,240.244 346.941,205.227 323.655,197.847 				"/>
				<polygon style="fill:#FAFAFA;" points="289.999,218.105 313.285,225.485 300.369,190.468 277.083,183.088 				"/>
				<polygon style="fill:#FAFAFA;" points="243.428,203.346 266.714,210.726 253.798,175.708 230.512,168.329 				"/>
				<polygon style="fill:#FAFAFA;" points="196.856,188.587 220.142,195.967 207.226,160.949 183.94,153.57 				"/>
				<polygon style="fill:#FAFAFA;" points="150.285,173.828 173.57,181.207 160.654,146.19 137.369,138.81 				"/>
				<polygon style="fill:#FAFAFA;" points="103.713,159.068 126.999,166.448 114.083,131.431 90.797,124.051 				"/>
				<polygon style="fill:#FAFAFA;" points="57.141,144.309 80.427,151.689 67.511,116.671 44.226,109.292 				"/>
			</g>
		</g>
	</g>
</g>
<g id="Background_Simple" style="display:none;">
	<g style="display:inline;">
		<path style="fill:#407BFF;" d="M387.659,67.978c-3.487-2.295-7.107-4.412-10.841-6.33c-32.146-16.512-76.409-20.427-107.294-2.329
			c-18.396,10.779-26.253,31.587-39.935,47.241c-17.211,19.691-44.267,30.901-68.255,42.033
			c-32.395,15.033-61.503,31.863-72.876,65.218c-9.455,27.733-4.627,60.546,18.157,82.646
			c21.674,21.023,50.491,36.797,79.522,46.904c24.983,8.698,48.016,8.203,66.54-10.387c12.098-12.142,19.043-27.869,26.488-42.962
			c8.418-17.066,19.377-38.368,38.367-47.055c18.121-8.289,41.293-5.181,60.544-10.524c31.8-8.827,54.378-37.338,57.923-68.112
			C440.211,127.767,420.337,89.488,387.659,67.978z"/>
		<path style="opacity:0.9;fill:#FFFFFF;" d="M387.659,67.978c-3.487-2.295-7.107-4.412-10.841-6.33
			c-32.146-16.512-76.409-20.427-107.294-2.329c-18.396,10.779-26.253,31.587-39.935,47.241
			c-17.211,19.691-44.267,30.901-68.255,42.033c-32.395,15.033-61.503,31.863-72.876,65.218
			c-9.455,27.733-4.627,60.546,18.157,82.646c21.674,21.023,50.491,36.797,79.522,46.904c24.983,8.698,48.016,8.203,66.54-10.387
			c12.098-12.142,19.043-27.869,26.488-42.962c8.418-17.066,19.377-38.368,38.367-47.055c18.121-8.289,41.293-5.181,60.544-10.524
			c31.8-8.827,54.378-37.338,57.923-68.112C440.211,127.767,420.337,89.488,387.659,67.978z"/>
	</g>
</g>
<g id="Shadow_1_">
	<ellipse id="_x3C_Path_x3E__370_" style="fill:#F5F5F5;" cx="250" cy="416.238" rx="193.889" ry="11.323"/>
</g>
<g id="_x34_03_Sign">
	<g>
		<path style="fill:#263238;" d="M326.47,407.572h-11.532V60.12c0-1.875,11.532-1.875,11.532,0L326.47,407.572z"/>
		<polygon points="326.47,190.596 314.939,192.92 314.939,176.97 326.47,176.97 		"/>
		<g>
			<path style="fill:#FFFFFF;" d="M397.729,186.598l-161.798-12.034c-6.582-0.49-11.566-6.275-11.077-12.857l6.758-90.86
				c0.49-6.582,6.275-11.566,12.857-11.077l161.798,12.034c6.582,0.49,11.566,6.275,11.077,12.857l-6.758,90.86
				C410.097,182.103,404.311,187.088,397.729,186.598z"/>
			<path style="fill:#407BFF;" d="M398.632,188.131c-0.337,0-0.675-0.012-1.014-0.037l-161.797-12.033
				c-3.583-0.267-6.855-1.922-9.215-4.661c-2.36-2.739-3.513-6.221-3.247-9.804l6.758-90.859c0.267-3.583,1.922-6.855,4.661-9.216
				c2.739-2.359,6.22-3.519,9.804-3.246l161.797,12.034c3.583,0.267,6.855,1.922,9.215,4.66c2.36,2.739,3.513,6.221,3.247,9.804
				l-6.758,90.86c-0.267,3.582-1.922,6.855-4.661,9.215C404.942,186.984,401.853,188.131,398.632,188.131z M243.573,61.237
				c-2.504,0-4.907,0.893-6.838,2.557c-2.132,1.837-3.42,4.381-3.626,7.165l-6.758,90.859c-0.429,5.774,3.918,10.821,9.692,11.25
				l161.797,12.033c2.784,0.206,5.491-0.69,7.623-2.526c2.132-1.837,3.42-4.382,3.626-7.165l6.758-90.86
				c0.429-5.773-3.918-10.82-9.692-11.249L244.358,61.267C244.096,61.247,243.834,61.237,243.573,61.237z"/>
		</g>
		<g>
			<g>
				<path style="fill:#407BFF;" d="M287.445,108.046l-20.327-1.512l0.683-9.177l22.124-22.65l9.725,0.724l-1.835,24.683l5.041,0.375
					l-0.644,8.656l-5.041-0.375l-0.558,7.507l-9.725-0.724L287.445,108.046z M288.089,99.39l0.94-12.639l-11.681,11.84
					L288.089,99.39z"/>
				<path style="fill:#407BFF;" d="M306.637,96.665c0.568-7.634,2.339-12.874,5.315-15.719c2.975-2.847,7.275-4.06,12.901-3.642
					c2.703,0.201,4.897,0.7,6.582,1.495c1.686,0.796,3.037,1.768,4.053,2.918c1.017,1.149,1.796,2.338,2.338,3.563
					c0.542,1.226,0.947,2.637,1.213,4.235c0.526,3.053,0.668,6.203,0.427,9.453c-0.542,7.287-2.171,12.528-4.888,15.724
					c-2.716,3.196-7.089,4.568-13.116,4.12c-3.379-0.251-6.069-0.992-8.071-2.225c-2.001-1.232-3.592-2.939-4.77-5.121
					c-0.859-1.552-1.461-3.63-1.809-6.236C306.465,102.626,306.406,99.771,306.637,96.665z M317.703,97.515
					c-0.38,5.114-0.189,8.642,0.577,10.581c0.765,1.938,2.005,2.972,3.722,3.1c1.132,0.084,2.143-0.24,3.034-0.974
					c0.89-0.732,1.595-1.941,2.116-3.629c0.52-1.688,0.915-4.349,1.186-7.983c0.396-5.333,0.212-8.95-0.556-10.853
					c-0.768-1.903-2.055-2.921-3.864-3.056c-1.845-0.138-3.247,0.699-4.208,2.51C318.748,89.021,318.08,92.457,317.703,97.515z"/>
				<path style="fill:#407BFF;" d="M355.498,91.953l-10.407-2.676c1.127-3.295,3.003-5.744,5.629-7.35
					c2.626-1.604,6.222-2.236,10.788-1.896c5.241,0.39,8.958,1.649,11.151,3.776c2.191,2.129,3.178,4.672,2.958,7.63
					c-0.129,1.736-0.721,3.271-1.775,4.606c-1.054,1.336-2.579,2.463-4.576,3.379c1.523,0.499,2.678,1.034,3.461,1.606
					c1.272,0.921,2.229,2.08,2.868,3.479c0.64,1.396,0.89,3.026,0.751,4.89c-0.174,2.338-0.953,4.534-2.335,6.588
					c-1.383,2.056-3.268,3.577-5.656,4.566c-2.387,0.988-5.454,1.343-9.197,1.064c-3.653-0.271-6.501-0.915-8.547-1.93
					c-2.046-1.016-3.688-2.399-4.925-4.154c-1.237-1.754-2.129-3.909-2.672-6.465l11.259-0.65c0.272,2.278,0.836,3.887,1.693,4.822
					c0.857,0.936,1.999,1.457,3.423,1.563c1.498,0.111,2.785-0.344,3.862-1.365c1.076-1.021,1.683-2.445,1.819-4.272
					c0.139-1.861-0.234-3.341-1.117-4.435c-0.883-1.094-2.146-1.702-3.789-1.824c-0.877-0.065-2.098,0.064-3.665,0.388l1.168-7.929
					c0.614,0.138,1.095,0.219,1.442,0.245c1.461,0.108,2.715-0.267,3.761-1.126c1.046-0.857,1.618-1.927,1.712-3.205
					c0.091-1.224-0.202-2.228-0.878-3.013c-0.676-0.784-1.653-1.226-2.932-1.32c-1.315-0.098-2.413,0.221-3.294,0.954
					C356.598,88.632,355.938,89.983,355.498,91.953z"/>
				<path style="fill:#407BFF;" d="M272.07,123.813l15.52,1.154l-0.297,4.002l-9.716-0.723l-0.222,2.979l9.013,0.671l-0.284,3.822
					l-9.013-0.671l-0.275,3.695l9.998,0.744l-0.315,4.244l-15.802-1.176L272.07,123.813z"/>
				<path style="fill:#407BFF;" d="M289.674,143.968l1.394-18.742l9.652,0.718c1.79,0.134,3.146,0.389,4.069,0.767
					c0.923,0.377,1.643,1.002,2.161,1.876c0.518,0.874,0.733,1.908,0.644,3.101c-0.078,1.04-0.366,1.921-0.866,2.643
					c-0.499,0.721-1.155,1.287-1.965,1.697c-0.517,0.264-1.213,0.459-2.089,0.591c0.673,0.282,1.158,0.55,1.456,0.803
					c0.202,0.17,0.486,0.521,0.853,1.056c0.368,0.533,0.609,0.94,0.725,1.225l2.401,5.639l-6.544-0.486l-2.67-5.958
					c-0.337-0.771-0.651-1.277-0.941-1.522c-0.397-0.321-0.858-0.502-1.387-0.541l-0.511-0.038l-0.566,7.607L289.674,143.968z
					 M296.32,133.252l2.441,0.182c0.264,0.02,0.782-0.026,1.553-0.142c0.389-0.048,0.717-0.221,0.983-0.517
					c0.267-0.298,0.415-0.651,0.446-1.061c0.045-0.605-0.112-1.083-0.472-1.436c-0.359-0.353-1.068-0.568-2.124-0.646l-2.544-0.189
					L296.32,133.252z"/>
				<path style="fill:#407BFF;" d="M310.04,145.482l1.394-18.742l9.651,0.718c1.79,0.134,3.146,0.389,4.07,0.767
					c0.923,0.377,1.644,1.002,2.162,1.876c0.518,0.874,0.732,1.908,0.644,3.101c-0.077,1.04-0.366,1.921-0.866,2.643
					c-0.5,0.721-1.155,1.287-1.965,1.697c-0.517,0.264-1.213,0.459-2.089,0.591c0.673,0.282,1.158,0.55,1.456,0.803
					c0.202,0.171,0.486,0.521,0.853,1.056c0.368,0.533,0.608,0.94,0.725,1.225l2.401,5.639l-6.544-0.486l-2.669-5.958
					c-0.337-0.77-0.651-1.277-0.941-1.522c-0.396-0.321-0.858-0.502-1.387-0.541l-0.511-0.038l-0.565,7.607L310.04,145.482z
					 M316.685,134.767l2.442,0.182c0.264,0.02,0.782-0.026,1.553-0.142c0.389-0.048,0.717-0.221,0.983-0.517
					c0.267-0.298,0.415-0.651,0.446-1.06c0.045-0.606-0.112-1.083-0.472-1.437c-0.359-0.353-1.068-0.568-2.124-0.646l-2.544-0.189
					L316.685,134.767z"/>
				<path style="fill:#407BFF;" d="M329.848,137.546c0.228-3.06,1.257-5.378,3.088-6.955c1.831-1.58,4.268-2.255,7.311-2.028
					c3.119,0.231,5.461,1.248,7.023,3.049c1.564,1.8,2.232,4.208,2.008,7.226c-0.163,2.191-0.665,3.96-1.506,5.307
					c-0.842,1.347-1.988,2.358-3.44,3.034c-1.452,0.677-3.217,0.938-5.296,0.782c-2.114-0.157-3.838-0.623-5.173-1.4
					c-1.335-0.776-2.378-1.925-3.131-3.447C329.979,141.593,329.685,139.736,329.848,137.546z M335.637,138.002
					c-0.141,1.893,0.11,3.278,0.751,4.157c0.642,0.879,1.568,1.363,2.778,1.453c1.244,0.093,2.237-0.241,2.98-0.999
					c0.742-0.759,1.191-2.188,1.347-4.283c0.131-1.765-0.129-3.08-0.78-3.947c-0.651-0.867-1.586-1.346-2.805-1.436
					c-1.168-0.087-2.136,0.257-2.905,1.031C336.234,134.752,335.779,136.094,335.637,138.002z"/>
				<path style="fill:#407BFF;" d="M351.768,148.586l1.393-18.742l9.652,0.718c1.79,0.134,3.146,0.389,4.069,0.767
					c0.923,0.377,1.644,1.002,2.161,1.876c0.518,0.874,0.733,1.908,0.644,3.101c-0.078,1.04-0.366,1.921-0.866,2.643
					c-0.499,0.721-1.155,1.287-1.965,1.697c-0.518,0.264-1.214,0.459-2.089,0.591c0.673,0.282,1.158,0.55,1.456,0.803
					c0.201,0.171,0.486,0.521,0.853,1.056c0.368,0.533,0.609,0.94,0.725,1.225l2.401,5.639l-6.544-0.486l-2.67-5.958
					c-0.336-0.77-0.651-1.277-0.941-1.522c-0.396-0.321-0.858-0.502-1.387-0.541l-0.511-0.038l-0.565,7.607L351.768,148.586z
					 M358.414,137.87l2.441,0.182c0.264,0.02,0.782-0.026,1.554-0.142c0.389-0.048,0.717-0.221,0.982-0.517
					c0.267-0.298,0.415-0.651,0.446-1.061c0.045-0.605-0.112-1.083-0.472-1.436c-0.359-0.353-1.068-0.568-2.125-0.646l-2.544-0.189
					L358.414,137.87z"/>
			</g>
		</g>
		<g>
			<path style="fill:#263238;" d="M252.751,163.344l1.272-17.102l11.537,0.857l-0.15,2.018l-9.274-0.689l-0.394,5.296l8.025,0.597
				l-0.15,2.02l-8.026-0.597l-0.578,7.769L252.751,163.344z"/>
			<path style="fill:#263238;" d="M267.158,156.04c0.211-2.839,1.139-5.004,2.782-6.497c1.644-1.492,3.671-2.148,6.082-1.969
				c1.579,0.117,2.974,0.6,4.185,1.449c1.212,0.848,2.099,1.972,2.664,3.37c0.564,1.398,0.783,2.953,0.656,4.664
				c-0.129,1.734-0.594,3.261-1.396,4.576c-0.802,1.317-1.871,2.28-3.206,2.888c-1.335,0.608-2.746,0.857-4.231,0.747
				c-1.61-0.12-3.02-0.616-4.229-1.487c-1.209-0.872-2.091-2.005-2.644-3.399C267.267,158.988,267.046,157.541,267.158,156.04z
				 M269.488,156.248c-0.153,2.061,0.28,3.727,1.3,4.994c1.02,1.268,2.366,1.964,4.038,2.089c1.703,0.126,3.149-0.368,4.339-1.483
				c1.189-1.115,1.866-2.773,2.03-4.975c0.104-1.392-0.042-2.625-0.434-3.698c-0.394-1.073-1.022-1.93-1.886-2.568
				c-0.863-0.639-1.859-1.001-2.986-1.085c-1.602-0.119-3.022,0.329-4.258,1.344C270.394,151.881,269.68,153.676,269.488,156.248z"
				/>
			<path style="fill:#263238;" d="M285.844,165.805l1.272-17.102l7.582,0.564c1.524,0.113,2.671,0.354,3.442,0.719
				c0.77,0.367,1.364,0.956,1.781,1.769c0.416,0.814,0.59,1.69,0.52,2.631c-0.09,1.214-0.56,2.207-1.407,2.982
				c-0.847,0.773-2.1,1.211-3.757,1.315c0.577,0.332,1.011,0.65,1.301,0.952c0.616,0.657,1.186,1.461,1.71,2.415l2.628,4.876
				l-2.846-0.212l-1.998-3.726c-0.585-1.076-1.071-1.902-1.458-2.479c-0.388-0.576-0.742-0.985-1.065-1.229
				c-0.322-0.243-0.655-0.42-0.999-0.532c-0.252-0.073-0.67-0.132-1.253-0.176l-2.625-0.195l-0.565,7.595L285.844,165.805z
				 M288.817,156.419l4.865,0.362c1.034,0.077,1.851,0.029,2.45-0.14c0.599-0.172,1.068-0.48,1.406-0.929
				c0.338-0.448,0.528-0.948,0.569-1.5c0.06-0.809-0.184-1.496-0.732-2.06c-0.549-0.565-1.457-0.895-2.724-0.988l-5.413-0.403
				L288.817,156.419z"/>
			<path style="fill:#263238;" d="M302.968,167.078l1.272-17.102l6.416,0.478c1.307,0.097,2.341,0.349,3.105,0.753
				c0.763,0.406,1.342,0.984,1.736,1.736c0.393,0.753,0.561,1.521,0.502,2.308c-0.054,0.731-0.304,1.404-0.749,2.019
				c-0.444,0.616-1.082,1.094-1.912,1.431c1.011,0.38,1.768,0.956,2.27,1.727c0.502,0.773,0.715,1.657,0.642,2.652
				c-0.06,0.802-0.284,1.532-0.673,2.196c-0.39,0.663-0.847,1.162-1.372,1.499c-0.526,0.336-1.17,0.571-1.935,0.707
				c-0.765,0.134-1.691,0.161-2.78,0.08L302.968,167.078z M305.382,165.23l4.257,0.316c0.731,0.055,1.246,0.065,1.546,0.032
				c0.528-0.055,0.975-0.179,1.341-0.369c0.366-0.192,0.678-0.487,0.934-0.887c0.256-0.398,0.405-0.872,0.446-1.416
				c0.047-0.637-0.075-1.203-0.367-1.698c-0.292-0.495-0.72-0.858-1.285-1.094c-0.565-0.232-1.392-0.39-2.481-0.471l-3.954-0.294
				L305.382,165.23z M305.969,157.332l3.698,0.274c1.003,0.075,1.727,0.062,2.172-0.038c0.588-0.129,1.043-0.379,1.364-0.754
				c0.321-0.376,0.504-0.863,0.548-1.462c0.042-0.566-0.057-1.077-0.296-1.529c-0.241-0.452-0.607-0.775-1.101-0.973
				c-0.494-0.197-1.355-0.342-2.584-0.434l-3.418-0.254L305.969,157.332z"/>
			<path style="fill:#263238;" d="M319.382,168.299l1.272-17.102l2.263,0.169l-1.272,17.102L319.382,168.299z"/>
			<path style="fill:#263238;" d="M325.634,168.764l1.272-17.102l5.891,0.439c1.33,0.099,2.338,0.257,3.026,0.472
				c0.963,0.299,1.769,0.77,2.417,1.411c0.846,0.83,1.447,1.854,1.806,3.073c0.36,1.219,0.482,2.591,0.369,4.114
				c-0.096,1.3-0.334,2.439-0.712,3.42c-0.377,0.981-0.829,1.781-1.352,2.403c-0.523,0.623-1.081,1.101-1.673,1.436
				c-0.592,0.336-1.294,0.57-2.105,0.707c-0.812,0.134-1.734,0.163-2.769,0.086L325.634,168.764z M328.047,166.915l3.651,0.271
				c1.128,0.084,2.02,0.044,2.677-0.119c0.657-0.161,1.19-0.419,1.6-0.771c0.577-0.497,1.048-1.188,1.415-2.071
				c0.367-0.883,0.599-1.97,0.695-3.262c0.133-1.788-0.059-3.186-0.574-4.189c-0.516-1.003-1.182-1.7-1.997-2.09
				c-0.59-0.278-1.557-0.468-2.902-0.568l-3.592-0.267L328.047,166.915z"/>
			<path style="fill:#263238;" d="M342.887,170.047l1.272-17.102l5.891,0.439c1.33,0.099,2.338,0.257,3.026,0.472
				c0.963,0.299,1.768,0.77,2.417,1.411c0.846,0.83,1.447,1.854,1.806,3.073c0.359,1.219,0.482,2.591,0.369,4.114
				c-0.096,1.3-0.333,2.439-0.711,3.42c-0.378,0.982-0.829,1.781-1.352,2.403c-0.523,0.623-1.081,1.101-1.672,1.436
				c-0.592,0.336-1.294,0.57-2.105,0.707c-0.812,0.134-1.735,0.163-2.769,0.086L342.887,170.047z M345.3,168.198l3.651,0.271
				c1.127,0.084,2.02,0.044,2.677-0.119c0.657-0.161,1.19-0.419,1.6-0.771c0.577-0.497,1.048-1.189,1.415-2.071
				c0.367-0.883,0.598-1.97,0.694-3.262c0.133-1.788-0.058-3.186-0.574-4.189c-0.516-1.003-1.181-1.7-1.997-2.09
				c-0.589-0.278-1.557-0.468-2.902-0.568l-3.593-0.267L345.3,168.198z"/>
			<path style="fill:#263238;" d="M360.186,171.334l1.272-17.102l12.365,0.92l-0.15,2.018l-10.102-0.752l-0.39,5.238l9.461,0.704
				l-0.149,2.007l-9.461-0.704l-0.433,5.821l10.499,0.781l-0.15,2.018L360.186,171.334z"/>
			<path style="fill:#263238;" d="M376.051,172.514l1.272-17.102l2.321,0.173l7.984,14.095l0.999-13.427l2.169,0.161l-1.272,17.102
				l-2.321-0.172l-7.983-14.107l-0.999,13.439L376.051,172.514z"/>
		</g>
	</g>
</g>
<g id="Character_1_">
	<g>
		<path style="fill:#263238;" d="M169.922,164.889l0.33,1.961l0.38,2.086c0.273,1.393,0.54,2.792,0.855,4.177
			c0.608,2.773,1.317,5.512,2.115,8.166c0.401,1.327,0.833,2.633,1.31,3.895c0.458,1.271,0.949,2.516,1.492,3.692
			c1.08,2.365,2.309,4.524,3.667,6.23l-2.738-1.796c0.642,0.325,1.254,0.595,2.288,0.531c1.003-0.048,2.352-0.423,3.734-1.106
			c1.403-0.663,2.859-1.593,4.297-2.656c0.718-0.533,1.443-1.092,2.146-1.686c0.359-0.291,0.71-0.592,1.056-0.896
			c0.341-0.285,0.724-0.637,0.992-0.851l0.538-0.43c1.605-1.283,3.945-1.021,5.228,0.584c0.91,1.139,1.04,2.652,0.466,3.891
			c-0.294,0.631-0.502,1.102-0.769,1.628c-0.263,0.507-0.532,1.008-0.814,1.503c-0.575,0.98-1.186,1.947-1.864,2.884
			c-1.351,1.878-2.931,3.667-4.861,5.314c-0.96,0.825-2.049,1.579-3.234,2.279c-1.184,0.7-2.503,1.325-3.978,1.754
			c-1.465,0.438-3.064,0.732-4.734,0.753c-1.669,0.024-3.358-0.251-4.959-0.714c-0.924-0.268-1.722-0.76-2.352-1.4l-0.387-0.396
			c-2.757-2.821-4.828-5.873-6.493-8.961c-1.691-3.084-3.017-6.217-4.13-9.366c-1.139-3.143-2.011-6.316-2.77-9.498
			c-0.363-1.595-0.709-3.189-0.985-4.803c-0.14-0.806-0.279-1.614-0.397-2.431c-0.117-0.845-0.217-1.586-0.326-2.575
			c-0.45-4.116,2.521-7.818,6.637-8.269c3.964-0.434,7.543,2.306,8.205,6.185L169.922,164.889z"/>
		<path style="fill:#FFFFFF;" d="M191.667,186.083c-2.111,0.667-4.583,3.111-3.806,5.972c0.778,2.861,9.333,5.028,9.611-0.139
			C195,187,191.667,186.083,191.667,186.083z"/>
		<path style="fill:#B55B52;" d="M190.545,188.872l0.91-1.389l9.34-2.525c0,0,1.362,5.95-5.388,8.216
			c-0.478,0.16-1.005,0.097-1.452-0.136l-2.689-1.402C190.256,191.109,189.92,189.825,190.545,188.872z"/>
		<path style="fill:#263238;" d="M120.077,154.747c11.944-2.162,28.123-2.577,39.852-0.571c5.963,1.02,10.17,6.434,9.643,12.46
			c-0.673,7.712-1.525,14.52-1.97,19.865c0.532,13.556-0.623,36.218-0.623,40.955c-0.001,0.004-49.686,0.703-49.686,0.703
			c-2.213-6.194-1.488-34.076-5.368-62.146C111.187,160.673,114.773,155.707,120.077,154.747z"/>
		<path style="opacity:0.2;" d="M145.593,227.519l-0.992-0.125c2.823-22.252,0.026-59.53-0.003-59.904l0.997-0.076
			C145.624,167.788,148.428,205.168,145.593,227.519z"/>
		<path style="fill:#407BFF;" d="M150.102,155.324c-1.959-0.532-0.194-2.551-0.194-2.551s8.887,0,15.029,1.205
			c0.939,0.726-0.072,1.649-0.072,1.649S155.918,156.903,150.102,155.324z"/>
		<path style="opacity:0.2;" d="M147.294,152.47c0,0,2.947,5.92-0.999,11.301c3.126,0.022,6.005,2,6.005,2s1.409-5.075-2.563-12.791
			C149.302,152.251,147.294,152.47,147.294,152.47z"/>
		<path style="fill:#407BFF;" d="M150.443,155.339c0.767,3.611-5.942,10.432-5.942,10.432s-11.865-6.22-12.616-9.79L150.443,155.339
			z"/>
		<path style="opacity:0.2;" d="M119.358,172.367c1.303,2.515-0.283,13.049-4.989,18.23c-0.313-4.575-0.697-9.362-1.202-14.241
			L119.358,172.367z"/>
		<path style="fill:#B55B52;" d="M133.157,136.815l13.447,6.449c-1.429,3.807-2.107,7.767,1.877,9.657
			c2.258,1.071,3.287,4.02,1.943,6.261c-1.151,1.919-3.101,3.591-6.118,3.893c-4.666,0.467-9.266-2.53-11.943-5.346
			c-1.104-1.162-0.022-2.519,0.121-4.136C132.989,147.869,133.882,141.88,133.157,136.815z"/>
		<path style="opacity:0.2;" d="M139.348,138.1l7.251,5.16c-0.416,1.096-0.762,2.203-0.945,3.27
			c-2.977,0.975-7.707-1.623-7.785-4.215C137.83,141.022,139.045,138.721,139.348,138.1z"/>
		<path style="fill:#263238;" d="M148.773,115.087c2.564,2.09,5.5,11.433,1.731,15.206
			C144.939,123.834,144.312,114.119,148.773,115.087z"/>
		<path style="fill:#B55B52;" d="M129.436,125.903c1.016,7.972,1.204,12.693,5.521,16.502c6.492,5.73,16.145,1.327,17.534-6.809
			c1.251-7.323-0.62-19.13-8.673-21.733C135.884,111.298,128.42,117.932,129.436,125.903z"/>
		<path style="fill:#263238;" d="M129.692,132.775c3.776,0.282,5.092-8.857,2.735-14.026c1.641,0.68,6.312,0.013,7.617-2.133
			c7.533,2.146,10.352,2.188,11.32-0.926c0.968-3.114-10.899-5.849-17.759-4.377c-6.859,1.473-4.84,6.439-4.84,6.439
			S117.152,121.497,129.692,132.775z"/>
		<path style="fill:#B55B52;" d="M126.935,133.392c1.149,1.81,2.887,2.932,4.435,3.303c2.328,0.557,3.134-1.783,2.187-4.132
			c-0.852-2.114-3.09-4.951-5.282-4.456C126.114,128.595,125.621,131.322,126.935,133.392z"/>
		<path style="fill:#263238;" d="M140.098,127.238c0.043,0.652,0.423,1.155,0.85,1.123c0.426-0.032,0.738-0.586,0.695-1.238
			s-0.423-1.155-0.85-1.123C140.367,126.031,140.056,126.586,140.098,127.238z"/>
		<path style="fill:#263238;" d="M148.944,126.521c0.043,0.652,0.423,1.155,0.85,1.123c0.426-0.032,0.738-0.586,0.695-1.238
			c-0.043-0.652-0.423-1.155-0.85-1.123C149.213,125.315,148.902,125.869,148.944,126.521z"/>
		<path style="fill:#A02724;" d="M147.515,127.188c0,0,1.73,3.651,3.482,5.345c-1.084,1.163-3.079,0.816-3.079,0.816
			L147.515,127.188z"/>
		<path style="fill:#263238;" d="M143.459,122.077c0.044,0.047,0.076,0.105,0.092,0.171c0.049,0.205-0.078,0.412-0.285,0.461
			c-2.076,0.492-3.382-0.707-3.437-0.758c-0.155-0.145-0.161-0.387-0.014-0.54c0.146-0.153,0.389-0.16,0.544-0.016l0,0
			c0.043,0.04,1.071,0.964,2.728,0.571C143.227,121.932,143.367,121.98,143.459,122.077z"/>
		<path style="fill:#263238;" d="M145.078,123.969c-0.056-0.031-0.104-0.077-0.139-0.135c-0.109-0.181-0.049-0.416,0.134-0.525
			c1.833-1.092,3.438-0.34,3.506-0.307c0.191,0.092,0.27,0.321,0.176,0.511c-0.094,0.19-0.323,0.269-0.514,0.178l0,0
			c-0.053-0.025-1.311-0.598-2.773,0.273C145.344,124.038,145.195,124.035,145.078,123.969z"/>
		<path style="fill:#263238;" d="M152.572,120.337c-0.119,0.037-0.253,0.015-0.355-0.07c-1.301-1.075-2.628-0.685-2.684-0.668
			c-0.202,0.062-0.416-0.051-0.477-0.253c-0.061-0.202,0.051-0.417,0.253-0.481c0.074-0.021,1.768-0.541,3.398,0.806
			c0.163,0.134,0.185,0.377,0.05,0.541C152.706,120.274,152.641,120.316,152.572,120.337z"/>
		<g>
			<path style="fill:#263238;" d="M196.16,219.96L196.16,219.96c-0.436-0.807-1.452-1.11-2.259-0.674l-12.234,6.611l-5.782-10.699
				c-0.436-0.807-1.452-1.11-2.258-0.674c-0.807,0.436-1.11,1.452-0.674,2.259l5.782,10.699l-42.157,22.783
				c-0.806,0.436-1.11,1.452-0.674,2.259v0c0.436,0.806,1.453,1.11,2.259,0.674l57.324-30.979
				C196.293,221.783,196.596,220.766,196.16,219.96z"/>
			<path style="fill:#407BFF;" d="M195.264,276.182c-19.979-15.002-81.571-21.044-60.29-48.427l32.005-0.299
				c0,0,45.043,23.106,47.455,47.267c2.511,25.122,6.964,64.694,6.964,64.694l-12.397,4.401
				C209.002,343.819,190.899,295.298,195.264,276.182z"/>
			<path style="opacity:0.2;" d="M136.075,241.503c-0.741,1.612-1.425,3.3-2.053,5.063c4.979,5.653,14.804,10.004,25.437,14.045
				C156.214,254.807,148.948,248.413,136.075,241.503z"/>
			<path style="fill:#263238;" d="M209.132,348.206l12.817-3.302c0.783-0.204,1.673-0.232,2.449,0.119
				c4.479,2.02,7.344,1.421,11.769,1.145c5.305-0.332,4.11,5.363,0.388,6.334c-6.157,1.605-5.702,1.253-10.953,2.621
				c-1.185,0.309-3.644,0.939-3.644,0.939l-2.084-1.271l-1.023,2.029c0,0-4.047,0.987-6.747,1.646
				c-0.747,0.182-1.498-0.288-1.61-1.047L209.132,348.206z"/>
			<path style="fill:#263238;" d="M209.462,349.471c0.189-0.089,14.615-4.128,14.615-4.128l-2.235-11.092l-16.035,4.344
				L209.462,349.471z"/>
		</g>
		<g>
			<path style="fill:#407BFF;" d="M119.769,309.823c0.606-36.437-7.047-73.526-2.476-81.664l37.12-0.524
				c0,0-11.096,60.748-14.027,85.019c-3.045,25.237-18.004,90.86-18.004,90.86l-11.969,0.186
				C110.414,403.701,111.829,335.979,119.769,309.823z"/>
			<path style="fill:#263238;" d="M109.966,405.633l11.018-0.171c0.808-0.013,1.685,0.171,2.371,0.696
				c3.957,3.023,4.422,3.121,8.808,3.901c5.259,0.935,2.896,6.184-0.949,6.245c-6.359,0.1-5.841-0.134-11.263-0.049
				c-1.224,0.02-5.889,0.049-5.889,0.049l-0.858-1.729l-0.966,1.729h-1.551c-0.754,0-1.368-0.653-1.32-1.403L109.966,405.633z"/>
			<path style="fill:#263238;" d="M109.923,406.94c0.187-0.042,13.848,0.632,13.848,0.632l0.909-12.484l-14.844,0.421
				L109.923,406.94z"/>
		</g>
		<path style="fill:#FFFFFF;" d="M146.804,151.757c0,0,3.436,6.632-0.509,12.014c3.126,0.022,6.55,1.359,6.55,1.359
			s2.786-6.748-3.36-12.786C149.05,151.614,146.804,151.757,146.804,151.757z"/>
		<g>
			<path style="fill:#263238;" d="M115.932,231.976c17.748,1.063,38.101,1.388,50.829-0.001c0.141-0.015,0.269-0.11,0.351-0.277
				c0.796-1.635,1.188-4.445,1.096-6.79c-0.014-0.36-0.233-0.63-0.482-0.62c-16.799,0.652-33.492,0.618-51.041-0.006
				c-0.197-0.007-0.382,0.162-0.455,0.428c-0.561,2.054-0.859,4.285-0.752,6.632C115.493,231.686,115.693,231.962,115.932,231.976z"
				/>
			<path style="opacity:0.2;" d="M115.932,231.976c17.748,1.063,38.101,1.388,50.829-0.001c0.141-0.015,0.269-0.11,0.351-0.277
				c0.796-1.635,1.188-4.445,1.096-6.79c-0.014-0.36-0.233-0.63-0.482-0.62c-16.799,0.652-33.492,0.618-51.041-0.006
				c-0.197-0.007-0.382,0.162-0.455,0.428c-0.561,2.054-0.859,4.285-0.752,6.632C115.493,231.686,115.693,231.962,115.932,231.976z"
				/>
		</g>
		<path style="fill:#FFFFFF;" d="M146.206,234.727c-1.921,0-3.638-0.217-3.759-0.232l-0.851-0.11l-0.021-0.857
			c-0.005-0.218-0.128-5.384,0.156-9.535l0.057-0.838l0.835-0.088c3.775-0.399,7.437-0.147,7.591-0.136l0.891,0.063l0.037,0.893
			c0.01,0.237,0.232,5.861-0.341,9.56l-0.092,0.591l-0.564,0.199C149.073,234.614,147.586,234.727,146.206,234.727z
			 M143.559,232.602c1.459,0.131,3.818,0.235,5.353-0.096c0.32-2.604,0.294-6.019,0.259-7.627c-1.155-0.044-3.274-0.081-5.496,0.097
			C143.52,227.855,143.539,231.084,143.559,232.602z"/>
		<path style="fill:#407BFF;" d="M126.92,224.262c0,0-0.289,5.608-0.695,9.179c-0.792,0.817-2.268,0.192-2.268,0.192
			s0.294-5.186,0.645-9.255C125.789,223.997,126.92,224.262,126.92,224.262z"/>
		<path style="fill:#407BFF;" d="M163.559,224.262c0,0-0.289,5.608-0.695,9.179c-0.792,0.817-2.268,0.192-2.268,0.192
			s0.294-5.186,0.645-9.255C162.428,223.997,163.559,224.262,163.559,224.262z"/>
		<g>
			<path style="fill:#407BFF;" d="M151.961,173.63c0.539,7.23,5.149,8.858,5.796,8.844c0.647-0.013,5.001-1.826,4.462-9.056
				c-1.838,0.05-3.583-0.746-5.282-1.952C155.522,172.846,153.883,173.619,151.961,173.63z"/>
		</g>
		<g>
			<path style="fill:#263238;" d="M151.005,114.426c5.14,0.862,7.079,3.257-4.497,4.659c-11.576,1.402-20.158,0.339-20.158,0.339
				S141.783,114.383,151.005,114.426z"/>
			<path style="fill:#407BFF;" d="M125.415,120.027c0,0,10.068-3.407,25.937-5.261c0.261-3.199-2.237-5.535-2.237-5.535
				s5.859-1.049,2.949-2.751c-1.996-1.167-6.778-1.298-12.064-4.7c-2.167,1.981-8.113,5.195-12.17,5.608
				c-1.006,1.719-3.628,6.024-7.877,7.687c0.061,1.876,4.287,2.363,4.287,2.363S124.041,118.701,125.415,120.027z"/>
			<path style="opacity:0.8;fill:#263238;" d="M124.24,117.437c8.609-5.591,16.866-8.015,24.875-8.206c0,0,2.498,2.336,2.237,5.535
				c-15.869,1.855-25.937,5.261-25.937,5.261C124.041,118.701,124.24,117.437,124.24,117.437z"/>
		</g>
		<g>
			<path style="fill:#FFFFFF;" d="M139.509,107.705c0.993,4.918,4.47,5.814,4.937,5.775c0.468-0.039,3.472-1.482,2.479-6.4
				c-1.328,0.12-2.659-0.342-3.991-1.088C142.024,107.002,140.901,107.607,139.509,107.705z"/>
		</g>
		<path style="fill:#263238;" d="M145.347,123.07c1.143,0.16,3.012,8.741-2.946,9.2c-5.008,0.386-6.568-4.205-6.568-5.807
			C135.832,124.064,143.734,122.844,145.347,123.07z"/>
		<path style="fill:#263238;" d="M147.874,122.967c-0.71,0.433,0.882,9.571,5.044,8.609c3.498-0.808,2.91-5.778,2.34-7.381
			C154.405,121.792,148.877,122.355,147.874,122.967z"/>
		<g style="opacity:0.2;">
			<path style="fill:#FFFFFF;" d="M143.244,123.16l3.111,5.666c-0.263,1.081-0.788,2.071-1.717,2.707l-4.292-7.848
				C141.346,123.443,142.376,123.262,143.244,123.16z"/>
			<path style="fill:#FFFFFF;" d="M139.083,124.039l4.403,8.039c-0.323,0.101-0.687,0.161-1.081,0.192
				c-0.253,0.02-0.485,0.03-0.717,0.02l-4.181-7.626C137.972,124.433,138.508,124.231,139.083,124.039z"/>
			<path style="fill:#FFFFFF;" d="M152.91,122.605l2.757,5.03c-0.061,0.868-0.253,1.737-0.687,2.444l-4.181-7.646
				C151.506,122.423,152.243,122.474,152.91,122.605z"/>
			<path style="fill:#FFFFFF;" d="M154.445,130.765c-0.242,0.243-0.535,0.445-0.889,0.596l-4.767-8.706
				c0.323-0.071,0.697-0.121,1.111-0.172L154.445,130.765z"/>
		</g>
		<g>
			<g>
				<path style="fill:#407BFF;" d="M209.047,177.936c0.514-0.216-0.343-2.26-0.858-2.045l-69.935,29.334
					c-0.176-0.265-0.511-0.387-0.816-0.259l-2.925,1.227c-0.305,0.128-0.453,0.452-0.387,0.764l-9.193,3.856
					c-2.058,0.863-3.898,2.174-5.387,3.837l-4.117,4.6c-0.158,2.212-2.025,3.909-4.241,3.856l-0.612-0.014l-21.139,12.792
					c-1.593,0.964-2.366,2.863-1.901,4.666c0.909,3.525,2.164,6.351,3.68,8.649c1.442,2.187,4.533,2.501,6.422,0.685l21.403-20.565
					c0.904-0.868,1.467-2.031,1.589-3.279l0.258-2.64l4.618-5.16c1.315,2.24,4.104,3.236,6.564,2.204
					c2.68-1.124,3.946-4.219,2.822-6.899c-0.026-0.062-0.067-0.114-0.095-0.175l1.712-0.718c0.171,0.281,0.518,0.412,0.831,0.281
					l2.925-1.227c0.313-0.131,0.463-0.47,0.382-0.789l40.788-17.109c0.474-0.199,0.698-0.745,0.499-1.219l0,0l21.993-9.225
					c0.341-0.143-0.183-1.393-0.524-1.249l-1.626,0.682l-0.085-1.776L209.047,177.936z M131.642,219.423
					c-2.054,0.862-4.405-0.065-5.354-2.054l0.614-0.686l0.31-0.13c0.27,0.354,0.57,0.688,0.929,0.97
					c1.108,0.869,2.488,1.254,3.886,1.086l-0.133-1.102c-1.104,0.134-2.193-0.169-3.069-0.856c-0.207-0.162-0.393-0.344-0.563-0.537
					l5.513-2.313c0.029,0.061,0.069,0.112,0.095,0.175C134.758,216.091,133.759,218.535,131.642,219.423z M199.776,183.637
					l-18.365,7.703l-0.646-1.54l18.927-7.939L199.776,183.637z"/>
				<path style="opacity:0.2;" d="M209.047,177.936c0.514-0.216-0.343-2.26-0.858-2.045l-69.935,29.334
					c-0.176-0.265-0.511-0.387-0.816-0.259l-2.925,1.227c-0.305,0.128-0.453,0.452-0.387,0.764l-9.193,3.856
					c-2.058,0.863-3.898,2.174-5.387,3.837l-4.117,4.6c-0.158,2.212-2.025,3.909-4.241,3.856l-0.612-0.014l-21.139,12.792
					c-1.593,0.964-2.366,2.863-1.901,4.666c0.909,3.525,2.164,6.351,3.68,8.649c1.442,2.187,4.533,2.501,6.422,0.685l21.403-20.565
					c0.904-0.868,1.467-2.031,1.589-3.279l0.258-2.64l4.618-5.16c1.315,2.24,4.104,3.236,6.564,2.204
					c2.68-1.124,3.946-4.219,2.822-6.899c-0.026-0.062-0.067-0.114-0.095-0.175l1.712-0.718c0.171,0.281,0.518,0.412,0.831,0.281
					l2.925-1.227c0.313-0.131,0.463-0.47,0.382-0.789l40.788-17.109c0.474-0.199,0.698-0.745,0.499-1.219l0,0l21.993-9.225
					c0.341-0.143-0.183-1.393-0.524-1.249l-1.626,0.682l-0.085-1.776L209.047,177.936z M131.642,219.423
					c-2.054,0.862-4.405-0.065-5.354-2.054l0.614-0.686l0.31-0.13c0.27,0.354,0.57,0.688,0.929,0.97
					c1.108,0.869,2.488,1.254,3.886,1.086l-0.133-1.102c-1.104,0.134-2.193-0.169-3.069-0.856c-0.207-0.162-0.393-0.344-0.563-0.537
					l5.513-2.313c0.029,0.061,0.069,0.112,0.095,0.175C134.758,216.091,133.759,218.535,131.642,219.423z M199.776,183.637
					l-18.365,7.703l-0.646-1.54l18.927-7.939L199.776,183.637z"/>
			</g>
			<path style="fill:#407BFF;" d="M182.066,189.629l-19.376,8.127c-0.671,0.282-1.004,1.04-0.758,1.725l0.793,2.201
				c0.265,0.736,1.094,1.1,1.815,0.798l19.375-8.127c0.671-0.281,1.004-1.04,0.758-1.724l-0.793-2.201
				C183.616,189.69,182.788,189.326,182.066,189.629z"/>
		</g>
		<path style="fill:#B55B52;" d="M194.402,182.055l0.667-0.181c1.73-0.47,3.576,0.089,4.755,1.439l0.595,0.682
			c0.686,0.785,0.397,2.012-0.567,2.409l-6.591,2.716c-0.79,0.326-1.693-0.062-2.001-0.859l0,0
			C190.26,185.67,191.721,182.783,194.402,182.055z"/>
		<path style="fill:#263238;" d="M124.6,168.254l-0.501,0.596l-0.579,0.71l-1.183,1.472c-0.781,1.008-1.57,2.026-2.34,3.064
			c-1.541,2.077-3.031,4.217-4.466,6.395c-1.468,2.159-2.787,4.414-4.147,6.65c-1.303,2.266-2.559,4.563-3.749,6.895l-0.882,1.755
			l-0.215,0.428c-0.021,0.049-0.046,0.097-0.074,0.144c-0.064,0.08-0.112,0.209-0.163,0.346c-0.207,0.537-0.397,1.365-0.46,2.328
			c-0.127,1.938,0.117,4.339,0.575,6.762c0.893,4.874,2.578,10.096,4.259,15.065l0.064,0.189c0.664,1.962-0.389,4.091-2.352,4.755
			c-1.544,0.522-3.194-0.024-4.15-1.234c-1.898-2.412-3.461-4.8-4.954-7.384c-1.477-2.57-2.807-5.256-3.924-8.155
			c-1.09-2.909-2.044-5.99-2.342-9.62c-0.143-1.813-0.149-3.786,0.316-5.949c0.112-0.539,0.242-1.081,0.439-1.648l0.281-0.836
			l0.203-0.526l0.801-2.061c2.159-5.491,4.806-10.781,7.845-15.846c1.532-2.526,3.136-5.012,4.899-7.409
			c0.879-1.2,1.778-2.393,2.73-3.56c0.485-0.583,0.951-1.172,1.466-1.749l0.777-0.876l0.887-0.96
			c2.808-3.04,7.549-3.228,10.589-0.419c2.949,2.725,3.214,7.268,0.662,10.313L124.6,168.254z"/>
		<path style="fill:#407BFF;" d="M132.428,156.089c2.006-0.71-0.542-2.854-0.542-2.854s-10.603,0.326-16.91,1.996
			c-0.942,0.905,0.145,1.975,0.145,1.975S126.473,158.196,132.428,156.089z"/>
		<path style="opacity:0.2;" d="M132.274,153.036c0,0,1.565,5.915,8.711,10.745c-3.126,0.023-7.541,3.12-7.541,3.12
			s-4.157-5.229-2.689-13.421C131.189,152.75,132.274,153.036,132.274,153.036z"/>
		<path style="fill:#FFFFFF;" d="M132.481,151.965c0,0,1.858,6.407,8.503,11.816c-3.126,0.023-7.787,1.557-7.787,1.557
			s-3.911-3.667-2.443-11.859C131.189,152.75,132.481,151.965,132.481,151.965z"/>
		<path style="fill:#B55B52;" d="M109.615,220.408l6.219,5.35l-8.249,5.362c0,0-5.043-5.527-2.539-8.681L109.615,220.408z"/>
		<path style="fill:#FFFFFF;" d="M104.188,224.917c0,0-1.292-1.023-1.688-2.199c1.979-2.051,5.979-3.738,7.792-4.197
			c1.104,1.042,1.146,3.198,1.146,3.198S106.167,222.625,104.188,224.917z"/>
		<path style="fill:#B55B52;" d="M116.539,234.249l-3.208,1.392c-1.277,0.554-2.767,0.102-3.521-1.068l-2.224-3.453l8.249-5.362
			l2.157,4.698C118.656,231.903,118.001,233.615,116.539,234.249z"/>
		<path style="fill:#263238;" d="M141.514,136.03c0.001-0.001,0.003-0.002,0.004-0.003c3.442-2.122,6.474-0.735,6.601-0.675
			c0.126,0.059,0.18,0.21,0.12,0.336c-0.059,0.126-0.21,0.18-0.335,0.121c-0.029-0.013-2.921-1.326-6.121,0.648
			c-0.119,0.073-0.274,0.036-0.347-0.082C141.364,136.257,141.399,136.104,141.514,136.03z"/>
		<polygon style="fill:#FFFFFF;" points="125.153,173.514 138.637,172.999 138.59,171.909 125.106,172.424 		"/>
	</g>
</g>
<g id="Barricade">
	<g>
		<g>
			<g>
				<polygon style="fill:#407BFF;" points="241.885,417.458 215.699,417.458 234.732,266.283 260.919,266.283 				"/>
				<polygon style="opacity:0.4;" points="241.885,417.458 215.699,417.458 234.732,266.283 260.919,266.283 				"/>
			</g>
			<polygon style="fill:#263238;" points="213.357,417.458 215.699,417.458 234.732,266.283 232.391,266.283 			"/>
		</g>
		<g>
			<g>
				<polygon style="fill:#407BFF;" points="339.534,417.458 313.347,417.458 332.381,266.283 358.568,266.283 				"/>
				<polygon style="opacity:0.4;" points="339.534,417.458 313.347,417.458 332.381,266.283 358.568,266.283 				"/>
			</g>
			<polygon style="fill:#263238;" points="311.005,417.458 313.347,417.458 332.381,266.283 330.039,266.283 			"/>
		</g>
		<g>
			<g>
				<polygon style="fill:#407BFF;" points="266.121,399.468 361.081,399.468 356.938,366.563 261.978,366.563 				"/>
				<polygon style="fill:#263238;" points="266.121,399.468 264.566,399.468 260.423,366.563 261.978,366.563 				"/>
				<g>
					<polygon style="fill:#FFFFFF;" points="355.847,368 359.628,398.032 354.018,398.032 338.952,368 					"/>
					<polygon style="fill:#FFFFFF;" points="329.384,368 344.45,398.032 323.846,398.032 308.78,368 					"/>
					<polygon style="fill:#FFFFFF;" points="299.212,368 314.279,398.032 293.674,398.032 278.608,368 					"/>
					<polygon style="fill:#FFFFFF;" points="269.047,368 284.113,398.032 267.211,398.032 263.43,368 					"/>
				</g>
			</g>
			<g>
				<polygon style="fill:#407BFF;" points="351.99,417.458 378.177,417.458 359.143,266.283 332.956,266.283 				"/>
				<polygon style="opacity:0.2;" points="341.436,333.632 368.986,344.456 361.082,281.677 334.895,281.677 				"/>
				<polygon style="fill:#263238;" points="351.99,417.458 349.649,417.458 330.615,266.283 332.956,266.283 				"/>
			</g>
			<g>
				<polygon style="fill:#407BFF;" points="254.342,417.458 280.529,417.458 261.495,266.283 235.308,266.283 				"/>
				<polygon style="opacity:0.2;" points="243.788,333.632 271.337,344.456 263.433,281.677 237.246,281.677 				"/>
				<polygon style="fill:#263238;" points="254.342,417.458 252,417.458 232.966,266.283 235.308,266.283 				"/>
			</g>
			<g>
				<polygon style="fill:#407BFF;" points="233.33,326.656 376.324,326.656 370.085,277.107 227.092,277.107 				"/>
				<polygon style="fill:#263238;" points="233.33,326.656 230.989,326.656 224.75,277.107 227.092,277.107 				"/>
				<g>
					<polygon style="fill:#FFFFFF;" points="368.442,279.272 374.136,324.494 365.687,324.494 343,279.272 					"/>
					<polygon style="fill:#FFFFFF;" points="328.593,279.272 351.28,324.494 320.254,324.494 297.567,279.272 					"/>
					<polygon style="fill:#FFFFFF;" points="283.16,279.272 305.847,324.494 274.82,324.494 252.133,279.272 					"/>
					<polygon style="fill:#FFFFFF;" points="237.736,279.272 260.423,324.494 234.972,324.494 229.278,279.272 					"/>
				</g>
			</g>
		</g>
	</g>
</g>
</svg>
